<svg xmlns="http://www.w3.org/2000/svg" viewBox="0 0 1673.28 639.57"><defs><style>.cls-1,.cls-3{fill:#3c3c3c;}.cls-1,.cls-2{fill-rule:evenodd;}.cls-2{fill:#1bb91f;}.cls-4{fill:none;stroke:#1bb91f;stroke-miterlimit:10;stroke-width:27.98px;}</style></defs><g id="Layer_2" data-name="Layer 2"><g id="Layer_1-2" data-name="Layer 1"><path id="screen" class="cls-1" d="M303.79,331.78H583.61v-24H0v24H279.81V639.57h24ZM523.62,0a60,60,0,0,1,60,60V579.61a60,60,0,0,1-60,60H52.9A52.9,52.9,0,0,1,0,586.67V61.07A61.07,61.07,0,0,1,61.07,0Z"/><path id="wordmark" class="cls-2" d="M711.69,262.88q-30.63,0-46.12-16.1T650.1,199.11V102.23H613V74.37H650.1V12.47h30.95v61.9h68.1v27.86h-68.1v97.19q0,18.27,9,26.78t23.52,8.51a84.17,84.17,0,0,0,15.17-1.55,110.67,110.67,0,0,0,17-4.64l6.19,27.24a123.92,123.92,0,0,1-20.58,5.41,117.25,117.25,0,0,1-19.66,1.71Zm99-2.79h-31V74.37h31v31s18.83-18.58,28-24.77,20-9.28,32.35-9.28q16.39,0,28,9.13t16.56,24.92S936.5,86.75,946,80.56s20.74-9.28,33.74-9.28q21.66,0,34.67,15.94t13,42.87v130h-31V135q0-18.57-7.11-26.46t-20.43-7.9q-13.32,0-26.47,8a86.24,86.24,0,0,0-23.37,21.36v130H888.11V135q0-18.57-7.12-26.46t-20.43-7.9q-13.3,0-26.46,8a86.24,86.24,0,0,0-23.37,21.36Zm269.89-14.24q-16.41-17.32-16.41-46.12V74.37h31V193.54q0,19.82,9.28,30t27.24,10.21q14.24,0,28.32-8.2t28-24.3V74.37h31V260.09h-31V229.14s-21,18.57-30.8,24.76a60.46,60.46,0,0,1-33,9.29Q1097,263.19,1080.62,245.85Zm280.11,14.24-45.19-69.95-42.41,69.95h-34.36l61.91-93.17-59.74-92.55h34.67l43,66.86,43.64-66.86h34.36l-62.52,90.7,61.28,95Z"/><path class="cls-3" d="M655.38,384.54h17.74V628H655.38Z"/><path class="cls-3" d="M796.4,613.71a118.1,118.1,0,0,1-45.21-44.16q-16.52-28.17-16.52-63.3T751.19,443A118.1,118.1,0,0,1,796.4,398.8q28.7-16,64.51-16,26.43,0,48.69,8.52a100.32,100.32,0,0,1,37.9,25.21L936.38,428q-29.22-28.86-74.77-28.87-30.61,0-55.65,13.91a101.83,101.83,0,0,0-39.29,38.43Q752.41,476,752.41,506.25T766.67,561A101.76,101.76,0,0,0,806,599.46q25,13.9,55.65,13.91,45.2,0,74.77-29.22l11.12,11.48A101.79,101.79,0,0,1,909.42,621a133,133,0,0,1-48.51,8.69Q825.09,629.71,796.4,613.71Z"/><path class="cls-3" d="M1079.3,508l-54.6,56v64H1007V384.54h17.73V541l152-156.49h21.56L1091.13,495.13,1205.54,628H1184Z"/><path class="cls-3" d="M1419.41,612v16h-168V384.54H1414.2v16h-145v96h129.71v15.65H1269.18V612Z"/><path class="cls-3" d="M1653.11,628,1595,546.6a177.51,177.51,0,0,1-23.65,1.73h-69.55V628h-17.74V384.54h87.29q45.9,0,72,21.73t26.08,60.34q0,28.88-14.78,48.51t-42.25,27.65l60.86,85.2Zm-81.73-95.29q38.94,0,59.47-17.21t20.52-48.86q0-31.64-20.52-48.86t-59.47-17.22h-69.55V532.68Z"/><line class="cls-4" x1="582.71" y1="320.44" x2="1673.13" y2="320.44"/></g></g></svg>